<mxfile host="app.diagrams.net" modified="2023-10-21T06:51:31.950Z" agent="Mozilla/5.0 (Macintosh; Intel Mac OS X 10_15_7) AppleWebKit/537.36 (KHTML, like Gecko) Chrome/118.0.0.0 Safari/537.36" etag="niGjmBiBVgen2ebTu2ln" version="22.0.6" type="github">
  <diagram name="Page-1" id="ccDm2Es830cC8SDJtkiW">
    <mxGraphModel dx="954" dy="547" grid="1" gridSize="10" guides="1" tooltips="1" connect="1" arrows="1" fold="1" page="1" pageScale="1" pageWidth="850" pageHeight="1100" math="0" shadow="0">
      <root>
        <mxCell id="0" />
        <mxCell id="1" parent="0" />
        <mxCell id="om-M0COcxJ-jairlj6dW-1" value="" style="rounded=0;whiteSpace=wrap;html=1;" vertex="1" parent="1">
          <mxGeometry x="250" y="120" width="30" height="160" as="geometry" />
        </mxCell>
        <mxCell id="om-M0COcxJ-jairlj6dW-3" value="" style="rounded=0;whiteSpace=wrap;html=1;" vertex="1" parent="1">
          <mxGeometry x="340" y="120" width="30" height="160" as="geometry" />
        </mxCell>
        <mxCell id="om-M0COcxJ-jairlj6dW-5" value="" style="endArrow=none;dashed=1;html=1;dashPattern=1 3;strokeWidth=2;rounded=0;entryX=1;entryY=0.75;entryDx=0;entryDy=0;" edge="1" parent="1" source="om-M0COcxJ-jairlj6dW-33">
          <mxGeometry width="50" height="50" relative="1" as="geometry">
            <mxPoint x="280" y="220" as="sourcePoint" />
            <mxPoint x="485" y="220" as="targetPoint" />
          </mxGeometry>
        </mxCell>
        <mxCell id="om-M0COcxJ-jairlj6dW-7" value="" style="endArrow=none;dashed=1;html=1;dashPattern=1 3;strokeWidth=2;rounded=0;entryX=0.883;entryY=0.783;entryDx=0;entryDy=0;entryPerimeter=0;" edge="1" parent="1">
          <mxGeometry width="50" height="50" relative="1" as="geometry">
            <mxPoint x="320" y="260" as="sourcePoint" />
            <mxPoint x="479.98" y="259.99" as="targetPoint" />
          </mxGeometry>
        </mxCell>
        <mxCell id="om-M0COcxJ-jairlj6dW-8" value="" style="endArrow=none;dashed=1;html=1;dashPattern=1 3;strokeWidth=2;rounded=0;entryX=1;entryY=0.75;entryDx=0;entryDy=0;" edge="1" parent="1">
          <mxGeometry width="50" height="50" relative="1" as="geometry">
            <mxPoint x="280" y="180" as="sourcePoint" />
            <mxPoint x="485" y="179" as="targetPoint" />
          </mxGeometry>
        </mxCell>
        <mxCell id="om-M0COcxJ-jairlj6dW-10" value="" style="endArrow=none;dashed=1;html=1;dashPattern=1 3;strokeWidth=2;rounded=0;entryX=1;entryY=0.75;entryDx=0;entryDy=0;" edge="1" parent="1">
          <mxGeometry width="50" height="50" relative="1" as="geometry">
            <mxPoint x="280" y="140" as="sourcePoint" />
            <mxPoint x="487" y="141" as="targetPoint" />
          </mxGeometry>
        </mxCell>
        <mxCell id="om-M0COcxJ-jairlj6dW-11" value="E&lt;sub&gt;1&lt;/sub&gt;" style="text;html=1;strokeColor=none;fillColor=none;align=center;verticalAlign=middle;whiteSpace=wrap;rounded=0;" vertex="1" parent="1">
          <mxGeometry x="240" y="166" width="60" height="30" as="geometry" />
        </mxCell>
        <mxCell id="om-M0COcxJ-jairlj6dW-12" value="E&lt;sub&gt;2&lt;/sub&gt;" style="text;html=1;strokeColor=none;fillColor=none;align=center;verticalAlign=middle;whiteSpace=wrap;rounded=0;" vertex="1" parent="1">
          <mxGeometry x="239" y="125" width="60" height="30" as="geometry" />
        </mxCell>
        <mxCell id="om-M0COcxJ-jairlj6dW-14" value="E&lt;sub&gt;-1&lt;/sub&gt;" style="text;html=1;strokeColor=none;fillColor=none;align=center;verticalAlign=middle;whiteSpace=wrap;rounded=0;" vertex="1" parent="1">
          <mxGeometry x="239" y="205" width="60" height="30" as="geometry" />
        </mxCell>
        <mxCell id="om-M0COcxJ-jairlj6dW-16" value="E&lt;sub&gt;-2&lt;/sub&gt;" style="text;html=1;strokeColor=none;fillColor=none;align=center;verticalAlign=middle;whiteSpace=wrap;rounded=0;" vertex="1" parent="1">
          <mxGeometry x="239" y="245" width="60" height="30" as="geometry" />
        </mxCell>
        <mxCell id="om-M0COcxJ-jairlj6dW-18" value="" style="endArrow=classic;html=1;rounded=0;strokeWidth=2;" edge="1" parent="1">
          <mxGeometry width="50" height="50" relative="1" as="geometry">
            <mxPoint x="481" y="281.5" as="sourcePoint" />
            <mxPoint x="481" y="121.5" as="targetPoint" />
          </mxGeometry>
        </mxCell>
        <mxCell id="om-M0COcxJ-jairlj6dW-28" value="" style="endArrow=classic;startArrow=classic;html=1;rounded=0;" edge="1" parent="1">
          <mxGeometry width="50" height="50" relative="1" as="geometry">
            <mxPoint x="500" y="221.5" as="sourcePoint" />
            <mxPoint x="500" y="181.5" as="targetPoint" />
          </mxGeometry>
        </mxCell>
        <mxCell id="om-M0COcxJ-jairlj6dW-29" value="e&lt;sup&gt;2&lt;/sup&gt;/2C" style="text;html=1;strokeColor=none;fillColor=none;align=center;verticalAlign=middle;whiteSpace=wrap;rounded=0;" vertex="1" parent="1">
          <mxGeometry x="500" y="186.5" width="60" height="30" as="geometry" />
        </mxCell>
        <mxCell id="om-M0COcxJ-jairlj6dW-32" value="" style="endArrow=none;dashed=1;html=1;dashPattern=1 3;strokeWidth=2;rounded=0;" edge="1" parent="1" source="om-M0COcxJ-jairlj6dW-35">
          <mxGeometry width="50" height="50" relative="1" as="geometry">
            <mxPoint x="280" y="260" as="sourcePoint" />
            <mxPoint x="310" y="260" as="targetPoint" />
          </mxGeometry>
        </mxCell>
        <mxCell id="om-M0COcxJ-jairlj6dW-34" value="" style="endArrow=none;dashed=1;html=1;dashPattern=1 3;strokeWidth=2;rounded=0;" edge="1" parent="1" target="om-M0COcxJ-jairlj6dW-33">
          <mxGeometry width="50" height="50" relative="1" as="geometry">
            <mxPoint x="280" y="220" as="sourcePoint" />
            <mxPoint x="420" y="220" as="targetPoint" />
          </mxGeometry>
        </mxCell>
        <mxCell id="om-M0COcxJ-jairlj6dW-33" value="" style="ellipse;whiteSpace=wrap;html=1;aspect=fixed;fillColor=#011999;" vertex="1" parent="1">
          <mxGeometry x="310" y="216" width="10" height="10" as="geometry" />
        </mxCell>
        <mxCell id="om-M0COcxJ-jairlj6dW-36" value="" style="endArrow=none;dashed=1;html=1;dashPattern=1 3;strokeWidth=2;rounded=0;" edge="1" parent="1" target="om-M0COcxJ-jairlj6dW-35">
          <mxGeometry width="50" height="50" relative="1" as="geometry">
            <mxPoint x="280" y="260" as="sourcePoint" />
            <mxPoint x="310" y="260" as="targetPoint" />
          </mxGeometry>
        </mxCell>
        <mxCell id="om-M0COcxJ-jairlj6dW-35" value="" style="ellipse;whiteSpace=wrap;html=1;aspect=fixed;fillColor=#011999;" vertex="1" parent="1">
          <mxGeometry x="310" y="255" width="10" height="10" as="geometry" />
        </mxCell>
        <mxCell id="om-M0COcxJ-jairlj6dW-40" value="3e&lt;sup&gt;2&lt;/sup&gt;/4C" style="text;html=1;strokeColor=none;fillColor=none;align=center;verticalAlign=middle;whiteSpace=wrap;rounded=0;" vertex="1" parent="1">
          <mxGeometry x="425" y="116" width="60" height="30" as="geometry" />
        </mxCell>
        <mxCell id="om-M0COcxJ-jairlj6dW-41" value="e&lt;sup&gt;2&lt;/sup&gt;/4C" style="text;html=1;strokeColor=none;fillColor=none;align=center;verticalAlign=middle;whiteSpace=wrap;rounded=0;" vertex="1" parent="1">
          <mxGeometry x="425" y="153.5" width="60" height="30" as="geometry" />
        </mxCell>
        <mxCell id="om-M0COcxJ-jairlj6dW-42" value="-e&lt;sup&gt;2&lt;/sup&gt;/4C" style="text;html=1;strokeColor=none;fillColor=none;align=center;verticalAlign=middle;whiteSpace=wrap;rounded=0;" vertex="1" parent="1">
          <mxGeometry x="425" y="194.5" width="60" height="30" as="geometry" />
        </mxCell>
        <mxCell id="om-M0COcxJ-jairlj6dW-43" value="-3e&lt;sup&gt;2&lt;/sup&gt;/4C" style="text;html=1;strokeColor=none;fillColor=none;align=center;verticalAlign=middle;whiteSpace=wrap;rounded=0;" vertex="1" parent="1">
          <mxGeometry x="427" y="233.5" width="60" height="30" as="geometry" />
        </mxCell>
        <mxCell id="om-M0COcxJ-jairlj6dW-44" value="&lt;b style=&quot;font-size: 16px;&quot;&gt;E&lt;/b&gt;" style="text;html=1;strokeColor=none;fillColor=none;align=center;verticalAlign=middle;whiteSpace=wrap;rounded=0;fontFamily=Times New Roman;fontSize=16;" vertex="1" parent="1">
          <mxGeometry x="470" y="110" width="60" height="30" as="geometry" />
        </mxCell>
        <mxCell id="om-M0COcxJ-jairlj6dW-47" value="" style="rounded=0;whiteSpace=wrap;html=1;gradientColor=none;gradientDirection=north;fillColor=#FF0000;shadow=0;sketch=1;curveFitting=1;jiggle=2;glass=0;strokeColor=none;" vertex="1" parent="1">
          <mxGeometry x="220" y="200.25" width="30" height="39.5" as="geometry" />
        </mxCell>
        <mxCell id="om-M0COcxJ-jairlj6dW-55" value="" style="rounded=0;whiteSpace=wrap;html=1;strokeColor=none;sketch=1;curveFitting=1;jiggle=2;fillColor=#FF0000;" vertex="1" parent="1">
          <mxGeometry x="370" y="200.25" width="30" height="39.75" as="geometry" />
        </mxCell>
        <mxCell id="om-M0COcxJ-jairlj6dW-56" value="E&lt;span style=&quot;font-size: 10px;&quot;&gt;&lt;sub&gt;FS&lt;/sub&gt;&lt;/span&gt;" style="text;html=1;strokeColor=none;fillColor=none;align=center;verticalAlign=middle;whiteSpace=wrap;rounded=0;fontFamily=Times New Roman;" vertex="1" parent="1">
          <mxGeometry x="179" y="183.5" width="60" height="30" as="geometry" />
        </mxCell>
        <mxCell id="om-M0COcxJ-jairlj6dW-57" value="E&lt;span style=&quot;font-size: 10px;&quot;&gt;&lt;sub&gt;FD&lt;/sub&gt;&lt;/span&gt;" style="text;html=1;strokeColor=none;fillColor=none;align=center;verticalAlign=middle;whiteSpace=wrap;rounded=0;fontFamily=Times New Roman;" vertex="1" parent="1">
          <mxGeometry x="380" y="183.5" width="60" height="30" as="geometry" />
        </mxCell>
        <mxCell id="om-M0COcxJ-jairlj6dW-58" value="source" style="text;html=1;strokeColor=none;fillColor=none;align=center;verticalAlign=middle;whiteSpace=wrap;rounded=0;fontFamily=Times New Roman;" vertex="1" parent="1">
          <mxGeometry x="190" y="233.5" width="60" height="30" as="geometry" />
        </mxCell>
        <mxCell id="om-M0COcxJ-jairlj6dW-59" value="drain" style="text;html=1;strokeColor=none;fillColor=none;align=center;verticalAlign=middle;whiteSpace=wrap;rounded=0;fontFamily=Times New Roman;" vertex="1" parent="1">
          <mxGeometry x="365" y="235" width="60" height="30" as="geometry" />
        </mxCell>
        <mxCell id="om-M0COcxJ-jairlj6dW-61" value="&lt;h2&gt;&lt;font face=&quot;Times New Roman&quot;&gt;V=0&lt;/font&gt;&lt;/h2&gt;" style="text;html=1;strokeColor=none;fillColor=none;spacing=5;spacingTop=-20;whiteSpace=wrap;overflow=hidden;rounded=0;" vertex="1" parent="1">
          <mxGeometry x="180" y="74.5" width="190" height="120" as="geometry" />
        </mxCell>
      </root>
    </mxGraphModel>
  </diagram>
</mxfile>
